HIERARCHY
ROOT Hips
{
	OFFSET 0.00000 0.00000 0.00000
	CHANNELS 6 Xposition Yposition Zposition Yrotation Zrotation Xrotation 
	JOINT Lumbar
	{
		OFFSET 0 0 0
		CHANNELS 3 Zrotation Xrotation Yrotation
		JOINT Neck
		{
			OFFSET 0.00 0.2701 0.00
			CHANNELS 3 Zrotation Xrotation Yrotation
			End Site
			{
				OFFSET 0.00 0.1379 0.00
			}
		}
		JOINT RightShoulder
		{
			OFFSET 0.0119 0.2289 0.1181
			CHANNELS 3 Zrotation Xrotation Yrotation
			JOINT RightElbow
			{
				OFFSET 0.00 -0.1475 0.00
				CHANNELS 2 Zrotation Yrotation
				JOINT RightWrist
				{
					OFFSET 0.00 -0.1605 0.00
					CHANNELS 2 Zrotation Xrotation
					End Site
					{
						OFFSET 0.0040 -0.1068 0.0006
					}
				}
			}
		}
		JOINT LeftShoulder
		{
			OFFSET 0.0119 0.2289 -0.1181
			CHANNELS 3 Zrotation Xrotation Yrotation
			JOINT LeftElbow
			{
				OFFSET 0.00 -0.1475 0.00
				CHANNELS 2 Zrotation Yrotation
				JOINT LeftWrist
				{
					OFFSET 0.00 -0.1605 0.00
					CHANNELS 2 Zrotation Xrotation
					End Site
					{
						OFFSET 0.0040 -0.1068 -0.0006
					}
				}
			}
		}
	}
	JOINT RightHip
	{
		OFFSET 0.0316 -0.0424 0.0458
		CHANNELS 3 Zrotation Xrotation Yrotation
		JOINT RightKnee
		{
			OFFSET 0.00 -0.2438 0.00
			CHANNELS 1 Zrotation
			JOINT RightAnkle
			{
				OFFSET 0.00 -0.2449 0.00
				CHANNELS 3 Zrotation Xrotation Yrotation
				End Site
				{
					OFFSET 0.1237 -0.0542 0.0051
				}
			}
		}
	}
	JOINT LeftHip
	{
		OFFSET 0.0316 -0.0424 -0.0458
		CHANNELS 3 Zrotation Xrotation Yrotation
		JOINT LeftKnee
		{
			OFFSET 0.00 -0.2438 0.00
			CHANNELS 1 Zrotation
			JOINT LeftAnkle
			{
				OFFSET 0.00 -0.2449 0.00
				CHANNELS 3 Zrotation Xrotation Yrotation
				End Site
				{
					OFFSET 0.1237 -0.0542 -0.0051
				}
			}
		}
	}
}
MOTION
Frames: 19
Frame Time: 0.02
0.69216 0.13866 -0.36114 84.97142 -23.53708 -12.96456 37.58365 -0.36629 -7.65407 -2.87666 12.42576 -0.83079 1.48556 -20.10469 -25.68251 78.27653 81.8915 0.03371 -2.9084 -8.56198 13.60756 30.36745 93.02503 -90.98791 11.77194 1.29349 13.76124 10.09299 -14.25194 0.18257 15.93713 3.34178 1.75131 23.62722 19.12996 17.66847 -0.60402 -11.57535 -32.78992 -16.17388
0.69219 0.13854 -0.35564 86.17424 -24.01882 -13.01679 36.74559 -0.08405 -7.47041 -2.88342 12.14669 -0.83079 1.03673 -18.73817 -25.2195 79.12846 82.29804 0.34303 -2.65539 -8.8991 13.43242 28.87255 93.71414 -90.99083 11.52 1.25006 14.70851 10.2314 -13.70246 0.18286 16.12907 0.56983 0.7313 26.05473 18.78641 13.97494 -2.90608 -11.32859 -26.74782 -13.05608
0.69197 0.13835 -0.3496 87.44501 -24.53689 -13.08366 35.79246 0.25029 -7.26597 -2.99993 11.7645 -0.83079 0.95453 -16.88885 -25.33386 79.8564 83.10037 1.07006 -2.24374 -9.07101 13.42856 27.09132 94.28208 -91.00233 11.27853 1.20393 15.7542 10.34067 -13.96984 0.172 15.66615 -1.29129 0.21184 28.86118 18.33698 9.57143 -5.88477 -10.82688 -19.05011 -9.08577
0.69187 0.13819 -0.34384 88.6855 -25.03891 -13.14317 34.91612 0.55633 -7.07022 -3.08657 11.40653 -0.83079 0.6693 -15.31243 -25.12087 80.64352 83.69093 1.5734 -1.91677 -9.31329 13.35754 25.4439 94.90294 -91.01509 11.03368 1.15778 16.7679 10.45716 -13.79573 0.13319 15.45533 -3.58542 -0.57166 31.45276 17.94737 5.64186 -8.54391 -10.45658 -12.32957 -5.619
0.69175 0.13802 -0.33787 89.92461 -25.54834 -13.20588 33.92994 0.88441 -6.87937 -3.09095 11.13843 -0.83079 0.52221 -13.51968 -25.14753 81.44424 84.40689 2.20782 -1.53915 -9.57904 13.24328 23.76879 95.54333 -91.00548 10.77864 1.11637 17.74589 10.59799 -13.78537 0.22959 15.44079 -5.97558 -1.29193 34.24771 17.50491 1.06448 -11.26334 -10.02077 -4.64815 -1.65698
0.69161 0.13785 -0.33225 91.18233 -26.04765 -13.2654 33.14781 1.17748 -6.67291 -3.29008 10.66384 -0.83079 0.18137 -12.05717 -24.82822 82.17921 84.96014 2.67414 -1.22815 -9.75554 13.25771 22.08967 96.11229 -91.04411 10.54902 1.06481 18.81453 10.68097 -13.68154 0.04336 14.86139 -7.87911 -1.98673 36.69662 17.14966 -2.33486 -14.00936 -9.66042 1.42552 1.47656
0.69152 0.13771 -0.32769 92.47336 -26.50722 -13.31186 32.95577 1.36727 -6.42674 -4.02146 9.60926 -0.83079 -0.79315 -11.65117 -23.37795 82.73915 84.95542 2.55956 -1.14308 -9.72291 13.60177 20.44959 96.48802 -91.22115 10.38635 0.98398 20.11317 10.61862 -13.089 -0.92227 12.87091 -8.69229 -2.77457 38.13977 17.04876 -2.23241 -16.7198 -9.57574 2.59032 2.08148
0.69143 0.13758 -0.32352 93.7802 -26.95501 -13.35488 32.97413 1.51849 -6.16615 -4.94012 8.35868 -0.83079 -1.96994 -11.58893 -21.57051 83.2371 84.77648 2.26542 -1.12964 -9.60621 14.06611 18.82075 96.7988 -91.44508 10.24935 0.89341 21.49752 10.49762 -12.39869 -2.17174 10.33783 -9.0176 -3.53451 39.2107 17.04137 -0.93286 -19.4197 -9.57491 2.089 1.8279
0.69131 0.13743 -0.31921 95.0814 -27.40804 -13.39968 32.89818 1.6832 -5.91226 -5.76025 7.21942 -0.83079 -3.04824 -11.35001 -19.95355 83.77581 84.68643 2.06479 -1.08104 -9.52946 14.46506 17.20108 97.15455 -91.64322 10.10202 0.80867 22.83621 10.39936 -11.79159 -3.28868 8.05752 -9.52027 -4.26726 40.42167 17.00035 -0.22672 -22.09039 -9.53257 2.39055 1.98771
0.69127 0.13731 -0.31475 96.38118 -27.86091 -13.44338 32.81297 1.86729 -5.65478 -6.64476 5.97698 -0.83079 -4.14844 -11.17782 -18.23706 84.25996 84.56972 1.82909 -1.03794 -9.43958 14.91634 15.51016 97.44188 -91.86137 9.95053 0.71805 24.20238 10.3179 -11.04594 -4.41817 5.72053 -10.17794 -5.15029 41.76998 16.92051 0.66795 -24.93994 -9.49585 2.559 2.08016
0.69109 0.13715 -0.31068 97.6834 -28.31341 -13.48922 32.79806 2.00057 -5.40448 -7.43332 4.9113 -0.83079 -5.2474 -10.95817 -16.63591 84.84154 84.46119 1.61738 -1.00244 -9.35929 15.28361 13.9751 97.8568 -92.04784 9.81221 0.63724 25.53606 10.18626 -10.55668 -5.59234 3.39108 -10.41274 -5.72258 42.73779 16.94218 1.45708 -27.39102 -9.4705 2.58525 2.09684
0.69055 0.13691 -0.30769 99.01514 -28.74437 -13.53466 32.93003 2.00777 -5.15429 -7.95258 4.32242 -0.83079 -6.36242 -10.49591 -15.43867 85.73241 84.42296 1.52232 -0.97127 -9.32676 15.40157 12.86317 98.64866 -92.14339 9.716 0.58709 26.70963 9.94435 -10.78879 -6.79186 1.13351 -9.55558 -5.41864 42.75283 17.24742 1.72602 -28.8665 -9.45826 2.63497 2.11827
0.68987 0.13664 -0.30506 100.34217 -29.17907 -13.58373 33.12472 1.96396 -4.917 -8.36061 3.92995 -0.83079 -7.45547 -9.98255 -14.36861 86.71924 84.3956 1.45387 -0.94597 -9.308 15.42865 11.91155 99.56995 -92.20333 9.62942 0.54692 27.85678 9.65134 -11.27911 -8.03328 -1.07944 -8.30135 -4.80958 42.39525 17.64743 1.84227 -29.91586 -9.45529 2.58889 2.08786
0.68924 0.13637 -0.30221 101.65519 -29.62771 -13.63567 33.28926 1.94012 -4.68823 -8.79167 3.48669 -0.83079 -8.51853 -9.51176 -13.23722 87.64633 84.35854 1.3675 -0.91809 -9.28256 15.48737 10.88904 100.42708 -92.27504 9.53106 0.50137 29.04713 9.37296 -11.65623 -9.27229 -3.25563 -7.2622 -4.35923 42.20091 17.98723 1.98594 -31.07586 -9.44807 2.57299 2.07441
0.68866 0.13614 -0.29959 103.04233 -30.01169 -13.66808 33.47039 1.92865 -4.39525 -9.34511 2.87336 -0.83079 -9.76811 -8.96692 -12.10358 88.63964 84.33764 1.3016 -0.89195 -9.25361 15.58735 9.85221 101.30512 -92.36943 9.46668 0.45902 30.10647 9.12951 -12.01886 -10.44491 -5.69097 -6.0614 -3.82415 42.01671 18.40184 2.335 -32.58333 -9.44433 2.55739 2.05997
0.68795 0.13582 -0.29657 104.26707 -30.52918 -13.7425 33.62617 1.87966 -4.24302 -9.61531 2.66439 -0.83079 -10.60771 -8.56481 -11.01577 89.51822 84.28553 1.19934 -0.86304 -9.2392 15.58306 8.89102 102.17032 -92.4045 9.3312 0.41254 31.43425 8.80106 -12.46674 -11.76968 -7.57006 -5.10687 -3.39206 41.7313 18.68289 2.22093 -33.26976 -9.43376 2.53872 2.04569
0.68695 0.13532 -0.29238 105.10207 -31.43354 -13.92821 33.7232 1.74116 -4.4434 -9.12709 3.51568 -0.83079 -10.43773 -8.52861 -9.97184 90.05803 84.16524 1.01084 -0.82148 -9.23766 15.27203 8.03171 102.97563 -92.31162 9.01795 0.35191 33.48086 8.25854 -13.1489 -13.4341 -7.90852 -4.95526 -3.33224 41.22795 18.56317 0.71568 -31.75944 -9.40888 2.55062 2.05321
0.68582 0.13474 -0.28776 105.76349 -32.46859 -14.15661 33.78792 1.56681 -4.79047 -8.359 4.76823 -0.83079 -9.8339 -8.646 -8.9823 90.47751 84.01046 0.78223 -0.77718 -9.25506 14.86719 7.25479 103.76194 -92.15621 8.62989 0.28683 35.80114 7.63137 -13.89597 -15.25907 -7.68856 -5.06295 -3.38431 40.64306 18.30677 -1.23106 -29.44455 -9.37552 2.5682 2.06541
0.68473 0.13417 -0.28328 106.4659 -33.43134 -14.36826 33.84718 1.40766 -5.09295 -7.71834 5.84528 -0.83079 -9.34986 -8.71521 -8.00178 90.95344 83.8583 0.55881 -0.73619 -9.28005 14.53038 6.48565 104.5533 -92.00982 8.26082 0.2241 38.01761 7.03746 -14.57408 -17.05879 -7.73194 -5.03762 -3.37671 40.11664 18.11851 -2.88008 -27.51924 -9.34067 2.58095 2.0739
